# xmcd CD database file
#
# Track frame offsets:
#	187
#	33480
#	55592
#	82725
#	104867
#	128107
#	151332
#	185975
#	217297
#	230730
#	251947
#
# Disc length: 3900 seconds
#
# Revision: 1
# Processed by: cddbd v1.5PL3 Copyright (c) Steve Scherf et al.
# Submitted via: CDex 1.50beta8
#
DISCID=a40f3a0b
DTITLE=ビル・エバンス - 猫とジャズの不思議なランデブー
DYEAR=1958
DGENRE=Jazz
TTITLE0=あなたと夜と音楽と
TTITLE1=ワット・イズ・ゼア・トゥ・セイ？
TTITLE2=枯葉
TTITLE3=いつか王子様が
TTITLE4=エルザ
TTITLE5=ザ・ボーイ・ネクスト・ドア
TTITLE6=デｔゥアー・アヘッド
TTITLE7=ワルツ・フォー・デビィ
TTITLE8=イン・ユア・オン・スイート・ウエイ
TTITLE9=イージー・ト・ラブ
TTITLE10=ラウンド・ミッド・ナイト
EXTD=YEAR: 1958年〜1963年
EXTT0=
EXTT1=
EXTT2=
EXTT3=
EXTT4=
EXTT5=
EXTT6=
EXTT7=
EXTT8=
EXTT9=
EXTT10=
PLAYORDER=
